<svg width="245" height="24" viewBox="0 0 245 24" fill="none" xmlns="http://www.w3.org/2000/svg">
<path d="M11.552 10.512C10.976 11.136 10.544 11.4 9.44 11.784L13.184 18H8.48L4.832 11.64L4.064 18H0.00800008L1.976 1.992H7.184C9.368 1.992 10.712 2.424 11.624 3.384C12.392 4.2 12.848 5.52 12.848 6.96C12.848 8.4 12.416 9.6 11.552 10.512ZM6.392 5.208H5.624L5.12 9.312H5.84C7.784 9.312 8.672 8.592 8.672 7.08C8.672 5.688 8.096 5.208 6.392 5.208ZM24.1308 7.272H28.6428L18.6108 23.496H14.1708L18.0108 17.16L14.2188 7.272H18.6108L19.7628 10.176C20.1948 11.256 20.3868 11.928 20.6508 13.248C21.0108 12.456 21.4668 11.616 22.0668 10.656L24.1308 7.272ZM35.3842 6.96C39.1522 6.96 41.6002 9.12 41.6002 12.456C41.6002 15.912 39.0082 18.312 35.2642 18.312C31.4242 18.312 28.8322 16.056 28.8322 12.672C28.8322 9.336 31.5442 6.96 35.3842 6.96ZM35.0482 15.216C36.5122 15.216 37.5682 13.992 37.5682 12.312C37.5682 10.944 36.7522 10.08 35.4322 10.08C33.9682 10.08 32.8642 11.328 32.8642 12.96C32.8642 14.328 33.7282 15.216 35.0482 15.216ZM51.0307 1.992H55.0867L54.2227 9L59.5027 1.992H64.1587L58.0387 10.152L63.5107 18H58.6387L55.2067 12.888C54.7747 12.24 54.3187 11.4 54.0067 10.776L53.1187 18H49.0627L51.0307 1.992ZM72.8735 7.272H76.8335L75.5135 18H71.5535L71.8415 16.824C70.6175 17.928 69.6815 18.312 68.1935 18.312C65.4815 18.312 63.7295 16.344 63.7295 13.248C63.7295 9.624 66.1295 6.96 69.3695 6.96C70.8815 6.96 71.6975 7.32 72.8495 8.496L72.8735 7.272ZM69.9215 15.216C71.3615 15.216 72.4175 13.992 72.4175 12.312C72.4175 10.944 71.6015 10.08 70.3055 10.08C68.8655 10.08 67.7615 11.328 67.7615 12.96C67.7615 14.328 68.6015 15.216 69.9215 15.216ZM94.0248 7.272H98.2728L92.0808 18H89.2488L88.1928 14.16C87.9528 13.32 87.8328 12.744 87.7128 11.76C87.4008 12.576 87.0408 13.392 86.7288 13.968L84.5448 18H81.6408L78.1608 7.272H82.1688L83.2488 10.608C83.4888 11.376 83.6808 12.096 83.8488 13.08C84.2088 12.12 84.3048 11.88 84.9048 10.776L86.8008 7.272H89.4408L90.4728 10.512C90.7848 11.496 90.9288 12.072 91.0728 12.84C91.3608 12.096 91.5768 11.592 91.9368 10.968L94.0248 7.272ZM107.561 7.272H111.521L110.201 18H106.241L106.529 16.824C105.305 17.928 104.369 18.312 102.881 18.312C100.169 18.312 98.417 16.344 98.417 13.248C98.417 9.624 100.817 6.96 104.057 6.96C105.569 6.96 106.385 7.32 107.537 8.496L107.561 7.272ZM104.609 15.216C106.049 15.216 107.105 13.992 107.105 12.312C107.105 10.944 106.289 10.08 104.993 10.08C103.553 10.08 102.449 11.328 102.449 12.96C102.449 14.328 103.289 15.216 104.609 15.216ZM120.576 10.32H118.464L117.504 18H113.568L114.504 10.32H112.824L113.184 7.272H114.888L115.296 3.744H119.256L118.824 7.272H120.936L120.576 10.32ZM130.249 7.272H134.209L132.889 18H128.929L129.217 16.824C127.993 17.928 127.057 18.312 125.569 18.312C122.857 18.312 121.104 16.344 121.104 13.248C121.104 9.624 123.505 6.96 126.745 6.96C128.257 6.96 129.073 7.32 130.225 8.496L130.249 7.272ZM127.297 15.216C128.737 15.216 129.793 13.992 129.793 12.312C129.793 10.944 128.977 10.08 127.681 10.08C126.241 10.08 125.137 11.328 125.137 12.96C125.137 14.328 125.977 15.216 127.297 15.216ZM141.617 18L143.585 1.992H148.937C150.761 1.992 152.393 2.232 153.593 3.408C154.793 4.584 154.937 6.024 154.937 7.08C154.937 8.232 154.769 9.672 153.689 10.848C152.585 12.048 150.665 12.696 148.121 12.696H146.321L145.673 18H141.617ZM148.361 5.352H147.233L146.753 9.336H148.025C148.601 9.336 149.657 9.288 150.281 8.664C150.737 8.208 150.785 7.608 150.785 7.248C150.785 6.552 150.569 6.12 150.329 5.88C149.801 5.328 148.937 5.352 148.361 5.352ZM161.384 6.96C165.152 6.96 167.6 9.12 167.6 12.456C167.6 15.912 165.008 18.312 161.264 18.312C157.424 18.312 154.832 16.056 154.832 12.672C154.832 9.336 157.544 6.96 161.384 6.96ZM161.048 15.216C162.512 15.216 163.568 13.992 163.568 12.312C163.568 10.944 162.752 10.08 161.432 10.08C159.968 10.08 158.864 11.328 158.864 12.96C158.864 14.328 159.728 15.216 161.048 15.216ZM170.541 7.272H174.501L174.189 8.736C175.413 7.632 176.253 7.272 177.765 7.272C177.933 7.272 178.197 7.296 178.533 7.32L178.101 10.968C177.477 10.632 176.997 10.488 176.301 10.488C174.669 10.488 174.021 11.256 173.733 13.44L173.181 18H169.221L170.541 7.272ZM186.951 10.32H184.839L183.879 18H179.943L180.879 10.32H179.199L179.559 7.272H181.263L181.671 3.744H185.631L185.199 7.272H187.311L186.951 10.32ZM196.269 10.32H193.581L192.621 18H188.661L189.621 10.32H187.965L188.325 7.272H190.005L190.317 4.704C190.653 1.8 192.309 0.215999 194.925 0.215999C195.813 0.215999 196.509 0.36 197.445 0.743999L197.013 4.104C196.533 3.72 196.197 3.576 195.693 3.576C194.781 3.576 194.325 4.128 194.181 5.376L193.941 7.272H196.629L196.269 10.32ZM203.83 6.96C207.598 6.96 210.046 9.12 210.046 12.456C210.046 15.912 207.454 18.312 203.71 18.312C199.87 18.312 197.278 16.056 197.278 12.672C197.278 9.336 199.99 6.96 203.83 6.96ZM203.493 15.216C204.958 15.216 206.014 13.992 206.014 12.312C206.014 10.944 205.198 10.08 203.878 10.08C202.414 10.08 201.31 11.328 201.31 12.96C201.31 14.328 202.174 15.216 203.493 15.216ZM213.826 0.503999H217.786L215.626 18H211.666L213.826 0.503999ZM219.83 7.272H223.79L222.47 18H218.51L219.83 7.272ZM220.022 2.808C220.022 1.608 220.982 0.647999 222.182 0.647999C223.382 0.647999 224.342 1.608 224.342 2.808C224.342 4.008 223.382 4.968 222.182 4.968C220.982 4.968 220.022 4.008 220.022 2.808ZM231.65 6.96C235.418 6.96 237.866 9.12 237.866 12.456C237.866 15.912 235.274 18.312 231.53 18.312C227.69 18.312 225.098 16.056 225.098 12.672C225.098 9.336 227.81 6.96 231.65 6.96ZM231.314 15.216C232.778 15.216 233.834 13.992 233.834 12.312C233.834 10.944 233.018 10.08 231.698 10.08C230.234 10.08 229.13 11.328 229.13 12.96C229.13 14.328 229.994 15.216 231.314 15.216ZM241.935 13.44C243.327 13.44 244.431 14.496 244.431 15.84C244.431 17.232 243.375 18.312 242.031 18.312C240.687 18.312 239.559 17.184 239.559 15.864C239.559 14.52 240.639 13.44 241.935 13.44Z" fill="black"/>
</svg>
