<svg width="40" height="40" viewBox="0 0 40 40" fill="none" xmlns="http://www.w3.org/2000/svg">
<path d="M30.1927 0H9.47394C4.42571 0 0.333313 4.19733 0.333313 9.375V30.625C0.333313 35.8027 4.42571 40 9.47394 40H30.1927C35.2409 40 39.3333 35.8027 39.3333 30.625V9.375C39.3333 4.19733 35.2409 0 30.1927 0Z" fill="#001E36"/>
<path d="M9.10834 27.8188V10.6688C9.10834 10.5521 9.15709 10.4855 9.27089 10.4855C9.54709 10.4855 9.80714 10.4855 10.1808 10.4688C10.5708 10.4521 10.9771 10.4521 11.4159 10.4355C11.8546 10.4188 12.3258 10.4188 12.8296 10.4021C13.3333 10.3855 13.8208 10.3855 14.3083 10.3855C15.6408 10.3855 16.7458 10.5521 17.6559 10.9021C18.4716 11.1862 19.2154 11.6531 19.8333 12.2688C20.357 12.8076 20.7615 13.4556 21.0196 14.1688C21.2634 14.8688 21.3933 15.5855 21.3933 16.3355C21.3933 17.7688 21.0684 18.9521 20.4183 19.8855C19.7683 20.8188 18.8583 21.5188 17.8021 21.9188C16.697 22.3355 15.4783 22.4855 14.1459 22.4855C13.7559 22.4855 13.4958 22.4855 13.3333 22.4688C13.1709 22.4521 12.9433 22.4521 12.6346 22.4521V27.8021C12.6508 27.9188 12.5696 28.0188 12.4558 28.0355H9.30334C9.17339 28.0355 9.10834 27.9688 9.10834 27.8188ZM12.6508 13.7021V19.3021C12.8784 19.3188 13.0895 19.3355 13.2845 19.3355H14.1459C14.7796 19.3355 15.4134 19.2355 16.0145 19.0355C16.5346 18.8855 16.9895 18.5688 17.3471 18.1521C17.6883 17.7355 17.8509 17.1688 17.8509 16.4355C17.8661 15.9146 17.7365 15.4001 17.477 14.9521C17.2008 14.5188 16.8108 14.1855 16.3396 14.0021C15.7383 13.7521 15.0883 13.6521 14.4221 13.6688C13.9996 13.6688 13.6258 13.6688 13.3171 13.6855C12.992 13.6688 12.7646 13.6855 12.6508 13.7021ZM31.5333 18.2855C31.0458 18.0188 30.5259 17.8355 29.9733 17.7188C29.372 17.5855 28.7709 17.5021 28.1533 17.5021C27.8283 17.4855 27.4871 17.5355 27.1783 17.6188C26.9671 17.6688 26.7883 17.7855 26.6746 17.9521C26.5933 18.0855 26.5445 18.2521 26.5445 18.4021C26.5445 18.5521 26.6096 18.7021 26.7071 18.8355C26.8533 19.0188 27.0483 19.1688 27.2596 19.2855C27.6364 19.4856 28.0213 19.6691 28.4133 19.8355C29.2908 20.1355 30.1359 20.5521 30.9159 21.0521C31.4521 21.4021 31.8909 21.8688 32.1995 22.4355C32.4596 22.9688 32.5895 23.5521 32.5734 24.1521C32.5895 24.9355 32.3621 25.7188 31.9396 26.3688C31.4864 27.0341 30.8539 27.5495 30.1196 27.8521C29.3233 28.2021 28.3483 28.3855 27.1783 28.3855C26.4309 28.3855 25.6996 28.3188 24.9684 28.1688C24.3953 28.0672 23.8379 27.8879 23.3109 27.6355C23.1971 27.5688 23.1159 27.4521 23.132 27.3188V24.4188C23.132 24.3688 23.1483 24.3021 23.1971 24.2688C23.2458 24.2355 23.2946 24.2521 23.3433 24.2855C23.9771 24.6688 24.6433 24.9355 25.3584 25.1021C25.9758 25.2688 26.6259 25.3521 27.2758 25.3521C27.8934 25.3521 28.3321 25.2688 28.6246 25.1188C28.8845 25.0021 29.0634 24.7188 29.0634 24.4188C29.0634 24.1855 28.9333 23.9688 28.6734 23.7521C28.4133 23.5355 27.8771 23.2855 27.0808 22.9688C26.264 22.6736 25.4883 22.2702 24.7734 21.7688C24.2642 21.3965 23.8423 20.9126 23.5383 20.3521C23.2783 19.8188 23.1483 19.2355 23.1646 18.6521C23.1646 17.9355 23.3596 17.2521 23.717 16.6355C24.1233 15.9688 24.7246 15.4355 25.4233 15.1021C26.1871 14.7021 27.1458 14.5188 28.2995 14.5188C28.9659 14.5188 29.6484 14.5688 30.3146 14.6688C30.8021 14.7355 31.2733 14.8688 31.712 15.0521C31.7771 15.0688 31.8421 15.1355 31.8746 15.2021C31.8909 15.2688 31.907 15.3355 31.907 15.4021V18.1188C31.907 18.1855 31.8746 18.2521 31.8258 18.2855C31.6796 18.3188 31.5984 18.3188 31.5333 18.2855Z" fill="#31A8FF"/>
</svg>
