<svg width="41" height="40" viewBox="0 0 41 40" fill="none" xmlns="http://www.w3.org/2000/svg">
<path d="M30.9584 0H9.70837C4.5307 0 0.333374 4.19733 0.333374 9.375V30.625C0.333374 35.8027 4.5307 40 9.70837 40H30.9584C36.136 40 40.3334 35.8027 40.3334 30.625V9.375C40.3334 4.19733 36.136 0 30.9584 0Z" fill="#242938"/>
<mask id="mask0_18_183" style="mask-type:luminance" maskUnits="userSpaceOnUse" x="9" y="4" width="22" height="32">
<path d="M9.86462 4.375H30.7021V35.625H9.86462V4.375Z" fill="white"/>
</mask>
<g mask="url(#mask0_18_183)">
<path d="M15.075 35.625C17.95 35.625 20.2833 33.2917 20.2833 30.4167V25.2083H15.075C12.2 25.2083 9.86658 27.5417 9.86658 30.4167C9.86658 33.2917 12.2 35.625 15.075 35.625Z" fill="#0ACF83"/>
<path d="M9.86658 20C9.86658 17.125 12.2 14.7917 15.075 14.7917H20.2833V25.2083H15.075C12.2 25.2083 9.86658 22.875 9.86658 20Z" fill="#A259FF"/>
<path d="M9.86658 9.58328C9.86658 6.70828 12.2 4.375 15.075 4.375H20.2833V14.7917H15.075C12.2 14.7917 9.86658 12.4583 9.86658 9.58328Z" fill="#F24E1E"/>
<path d="M20.2833 4.375H25.4916C28.3666 4.375 30.7 6.70828 30.7 9.58328C30.7 12.4583 28.3666 14.7917 25.4916 14.7917H20.2833V4.375Z" fill="#FF7262"/>
<path d="M30.7 20C30.7 22.875 28.3666 25.2083 25.4916 25.2083C22.6166 25.2083 20.2833 22.875 20.2833 20C20.2833 17.125 22.6166 14.7917 25.4916 14.7917C28.3666 14.7917 30.7 17.125 30.7 20Z" fill="#1ABCFE"/>
</g>
</svg>
