<svg width="41" height="40" viewBox="0 0 41 40" fill="none" xmlns="http://www.w3.org/2000/svg">
<path d="M31.2917 0H10.0417C4.86402 0 0.666687 4.19733 0.666687 9.375V30.625C0.666687 35.8027 4.86402 40 10.0417 40H31.2917C36.4694 40 40.6667 35.8027 40.6667 30.625V9.375C40.6667 4.19733 36.4694 0 31.2917 0Z" fill="#00005B"/>
<path d="M9.10419 28.5438V11.377C9.10419 11.2605 9.15419 11.1937 9.27091 11.1937C9.55419 11.1937 9.82091 11.1937 10.2042 11.177C10.6042 11.1605 11.0209 11.1605 11.4709 11.1437C11.9209 11.127 12.4042 11.127 12.9209 11.1105C13.4375 11.0938 13.9375 11.0938 14.4375 11.0938C15.8042 11.0938 16.9375 11.2605 17.8709 11.6105C18.7075 11.8946 19.4704 12.3614 20.1042 12.977C20.6412 13.5159 21.0562 14.1638 21.3209 14.877C21.5709 15.577 21.7042 16.2938 21.7042 17.0438C21.7042 18.477 21.3709 19.6605 20.7042 20.5938C20.0375 21.527 19.1042 22.227 18.0209 22.627C16.8875 23.0438 15.6375 23.1938 14.2709 23.1938C13.8709 23.1938 13.6042 23.1938 13.4375 23.177C13.2709 23.1605 13.0375 23.1605 12.7209 23.1605V28.5105C12.7375 28.627 12.6542 28.727 12.5375 28.7438H9.30419C9.17091 28.7438 9.10419 28.677 9.10419 28.527V28.5438ZM12.7375 14.427V20.027C12.9709 20.0438 13.1875 20.0605 13.3875 20.0605H14.2709C14.9209 20.0605 15.5709 19.9605 16.1875 19.7605C16.7209 19.6105 17.1875 19.2938 17.5542 18.877C17.9042 18.4605 18.0709 17.8938 18.0709 17.1605C18.0865 16.6396 17.9535 16.1251 17.6875 15.677C17.4042 15.2438 17.0042 14.9105 16.5209 14.727C15.9042 14.477 15.2375 14.377 14.5542 14.3938C14.1209 14.3938 13.7375 14.3937 13.4209 14.4105C13.0875 14.3937 12.8542 14.4105 12.7375 14.427ZM24.1042 15.4105H27.0209C27.1876 15.4105 27.3209 15.527 27.3709 15.677C27.4209 15.8105 27.4542 15.9438 27.4709 16.0938C27.5042 16.2605 27.5376 16.4438 27.5542 16.6105C27.5709 16.7938 27.5876 16.9938 27.5876 17.2105C28.088 16.6262 28.6927 16.1401 29.3709 15.777C30.1376 15.3438 31.0209 15.127 31.9042 15.127C32.0209 15.1105 32.1209 15.1938 32.1376 15.3105V18.627C32.1376 18.7605 32.0542 18.8105 31.8709 18.8105C31.2709 18.7938 30.6542 18.8438 30.0709 18.977C29.5876 19.077 29.1209 19.227 28.6709 19.427C28.3542 19.577 28.0542 19.777 27.8209 20.0438V28.5438C27.8209 28.7105 27.7542 28.777 27.6042 28.777H24.3209C24.1876 28.7938 24.0709 28.7105 24.0542 28.577V19.277C24.0542 18.877 24.0542 18.4605 24.0376 18.027C24.0209 17.5938 24.0209 17.1605 24.0042 16.727C24.0042 16.3438 23.9709 15.977 23.9376 15.5938C23.9209 15.5105 23.9709 15.427 24.0542 15.4105C24.0542 15.3938 24.0876 15.3938 24.1042 15.4105Z" fill="#9999FF"/>
</svg>
