<svg width="40" height="40" viewBox="0 0 40 40" fill="none" xmlns="http://www.w3.org/2000/svg">
<path d="M30.625 0H9.375C4.19733 0 0 4.19733 0 9.375V30.625C0 35.8027 4.19733 40 9.375 40H30.625C35.8027 40 40 35.8027 40 30.625V9.375C40 4.19733 35.8027 0 30.625 0Z" fill="#470137"/>
<path d="M20.9749 12.5336L16.2874 20.268L21.2874 28.4711C21.3186 28.5336 21.3343 28.5961 21.3186 28.6586C21.303 28.7211 21.2405 28.6743 21.1468 28.6899H17.5686C17.3186 28.6899 17.1468 28.6743 17.0374 28.518C16.7093 27.8618 16.3655 27.2211 16.0374 26.5649C15.7093 25.9243 15.3499 25.268 14.9749 24.5961C14.5999 23.9243 14.2249 23.2524 13.8499 22.5649H13.8186C13.4905 23.2368 13.1311 23.9086 12.7718 24.5805C12.4124 25.2524 12.053 25.9243 11.7093 26.5805C11.3499 27.2368 10.9905 27.9086 10.6311 28.5493C10.5686 28.7055 10.4436 28.7211 10.2718 28.7211H6.83425C6.77175 28.7211 6.72488 28.7524 6.72488 28.6743C6.70925 28.6118 6.72488 28.5493 6.75613 28.5024L11.6155 20.5336L6.88113 12.518C6.83425 12.4555 6.81863 12.393 6.84988 12.3618C6.88113 12.3149 6.94363 12.2993 7.00613 12.2993H10.553C10.6311 12.2993 10.7093 12.3149 10.7718 12.3305C10.8343 12.3618 10.8811 12.4086 10.928 12.4711C11.2249 13.143 11.5686 13.8149 11.928 14.4868C12.303 15.1586 12.6624 15.8149 13.053 16.4711C13.428 17.1274 13.7718 17.7836 14.0999 18.4555H14.1311C14.4593 17.768 14.803 17.0961 15.1468 16.4399C15.4905 15.7836 15.8499 15.1274 16.2093 14.4711C16.5686 13.8149 16.9124 13.143 17.2561 12.5024C17.2718 12.4399 17.303 12.3774 17.3499 12.3461C17.4124 12.3149 17.4749 12.2993 17.553 12.3149H20.8499C20.928 12.2993 21.0061 12.3461 21.0218 12.4243C21.0374 12.4399 21.0061 12.5024 20.9749 12.5336ZM28.1936 29.0182C27.0374 29.0338 25.8811 28.7994 24.8343 28.3151C23.8499 27.8619 23.0374 27.1119 22.4749 26.1901C21.8968 25.2369 21.6155 24.0494 21.6155 22.6276C21.5999 21.4713 21.8968 20.3307 22.4749 19.3307C23.0686 18.3151 23.928 17.4713 24.9593 16.9088C26.053 16.2994 27.3655 16.0026 28.9124 16.0026C28.9905 16.0026 29.0999 16.0026 29.2405 16.0182C29.3811 16.0338 29.5374 16.0338 29.7249 16.0494V11.1119C29.7249 11.0026 29.7718 10.9401 29.8811 10.9401H33.053C33.1311 10.9244 33.1936 10.9869 33.2093 11.0494V25.9557C33.2093 26.2369 33.2249 26.5494 33.2405 26.8932C33.2718 27.2213 33.2874 27.5338 33.303 27.7994C33.303 27.9088 33.2561 28.0026 33.1468 28.0494C32.3343 28.3932 31.4749 28.6432 30.5999 28.7994C29.803 28.9401 29.0061 29.0182 28.1936 29.0182ZM29.7249 25.8932V19.0182C29.5843 18.9869 29.4436 18.9557 29.303 18.9401C29.1311 18.9244 28.9593 18.9088 28.7874 18.9088C28.178 18.9088 27.5686 19.0338 27.0218 19.3151C26.4905 19.5807 26.0374 19.9713 25.6936 20.4713C25.3499 20.9713 25.178 21.6432 25.178 22.4557C25.1624 23.0026 25.2561 23.5494 25.4436 24.0651C25.5999 24.4869 25.8343 24.8619 26.1468 25.1744C26.4436 25.4557 26.803 25.6744 27.2093 25.7994C27.6311 25.9401 28.0686 26.0026 28.5061 26.0026C28.7405 26.0026 28.9593 25.9869 29.1624 25.9713C29.3655 25.9869 29.5374 25.9557 29.7249 25.8932Z" fill="#FF61F6"/>
</svg>
